<mxfile host="app.diagrams.net" modified="2024-02-02T19:48:15.822Z" agent="Mozilla/5.0 (Windows NT 10.0; Win64; x64) AppleWebKit/537.36 (KHTML, like Gecko) Chrome/120.0.0.0 Safari/537.36 Edg/120.0.0.0" etag="gUHry9w3mz05GkF8zY0m" version="22.1.22" type="device">
  <diagram name="Page-1" id="03VpF-rc_p-RFlo5BT9Z">
    <mxGraphModel dx="1477" dy="727" grid="1" gridSize="10" guides="1" tooltips="1" connect="1" arrows="1" fold="1" page="1" pageScale="1" pageWidth="850" pageHeight="1100" math="0" shadow="0">
      <root>
        <mxCell id="0" />
        <mxCell id="1" parent="0" />
        <mxCell id="3Kygi3Q1QK8g2xKjrZx_-69" style="edgeStyle=orthogonalEdgeStyle;rounded=0;orthogonalLoop=1;jettySize=auto;html=1;entryX=1;entryY=0.5;entryDx=0;entryDy=0;" edge="1" parent="1" source="3Kygi3Q1QK8g2xKjrZx_-55" target="3Kygi3Q1QK8g2xKjrZx_-6">
          <mxGeometry relative="1" as="geometry" />
        </mxCell>
        <mxCell id="3Kygi3Q1QK8g2xKjrZx_-55" value="" style="rounded=0;whiteSpace=wrap;html=1;fillColor=none;strokeColor=default;" vertex="1" parent="1">
          <mxGeometry x="745" y="190" width="150" height="170" as="geometry" />
        </mxCell>
        <mxCell id="3Kygi3Q1QK8g2xKjrZx_-33" value="" style="rounded=0;whiteSpace=wrap;html=1;fillColor=none;strokeColor=default;" vertex="1" parent="1">
          <mxGeometry x="995" y="30" width="150" height="160" as="geometry" />
        </mxCell>
        <mxCell id="3Kygi3Q1QK8g2xKjrZx_-39" value="" style="rounded=0;whiteSpace=wrap;html=1;fillColor=none;strokeColor=default;" vertex="1" parent="1">
          <mxGeometry x="995" y="380" width="150" height="260" as="geometry" />
        </mxCell>
        <mxCell id="3Kygi3Q1QK8g2xKjrZx_-4" value="" style="edgeStyle=orthogonalEdgeStyle;rounded=0;orthogonalLoop=1;jettySize=auto;html=1;" edge="1" parent="1" source="3Kygi3Q1QK8g2xKjrZx_-1" target="3Kygi3Q1QK8g2xKjrZx_-3">
          <mxGeometry relative="1" as="geometry" />
        </mxCell>
        <mxCell id="3Kygi3Q1QK8g2xKjrZx_-1" value="&lt;font color=&quot;#ffffff&quot;&gt;Custodian&lt;/font&gt;" style="rounded=0;whiteSpace=wrap;html=1;fillColor=#CC6600;strokeColor=none;" vertex="1" parent="1">
          <mxGeometry x="350" y="40" width="120" height="40" as="geometry" />
        </mxCell>
        <mxCell id="3Kygi3Q1QK8g2xKjrZx_-5" style="edgeStyle=orthogonalEdgeStyle;rounded=0;orthogonalLoop=1;jettySize=auto;html=1;entryX=1;entryY=0.5;entryDx=0;entryDy=0;" edge="1" parent="1" source="3Kygi3Q1QK8g2xKjrZx_-3" target="3Kygi3Q1QK8g2xKjrZx_-1">
          <mxGeometry relative="1" as="geometry" />
        </mxCell>
        <mxCell id="3Kygi3Q1QK8g2xKjrZx_-7" value="" style="edgeStyle=orthogonalEdgeStyle;rounded=0;orthogonalLoop=1;jettySize=auto;html=1;exitX=0;exitY=0.5;exitDx=0;exitDy=0;" edge="1" parent="1" source="3Kygi3Q1QK8g2xKjrZx_-3" target="3Kygi3Q1QK8g2xKjrZx_-6">
          <mxGeometry relative="1" as="geometry" />
        </mxCell>
        <mxCell id="3Kygi3Q1QK8g2xKjrZx_-3" value="&lt;font color=&quot;#ffffff&quot;&gt;Smart Contracts&lt;/font&gt;" style="rounded=0;whiteSpace=wrap;html=1;fillColor=#CC6600;strokeColor=none;" vertex="1" parent="1">
          <mxGeometry x="630" y="40" width="120" height="40" as="geometry" />
        </mxCell>
        <mxCell id="3Kygi3Q1QK8g2xKjrZx_-67" style="edgeStyle=orthogonalEdgeStyle;rounded=0;orthogonalLoop=1;jettySize=auto;html=1;entryX=0;entryY=0.5;entryDx=0;entryDy=0;" edge="1" parent="1" source="3Kygi3Q1QK8g2xKjrZx_-6" target="3Kygi3Q1QK8g2xKjrZx_-55">
          <mxGeometry relative="1" as="geometry" />
        </mxCell>
        <mxCell id="3Kygi3Q1QK8g2xKjrZx_-6" value="&lt;font color=&quot;#ffffff&quot;&gt;Securrency&lt;/font&gt;" style="rounded=0;whiteSpace=wrap;html=1;fillColor=#CC6600;strokeColor=none;" vertex="1" parent="1">
          <mxGeometry x="490" y="256" width="120" height="40" as="geometry" />
        </mxCell>
        <mxCell id="3Kygi3Q1QK8g2xKjrZx_-10" style="edgeStyle=orthogonalEdgeStyle;rounded=0;orthogonalLoop=1;jettySize=auto;html=1;entryX=0.5;entryY=0;entryDx=0;entryDy=0;" edge="1" parent="1" source="3Kygi3Q1QK8g2xKjrZx_-8" target="3Kygi3Q1QK8g2xKjrZx_-6">
          <mxGeometry relative="1" as="geometry" />
        </mxCell>
        <mxCell id="3Kygi3Q1QK8g2xKjrZx_-12" value="" style="edgeStyle=orthogonalEdgeStyle;rounded=0;orthogonalLoop=1;jettySize=auto;html=1;" edge="1" parent="1" source="3Kygi3Q1QK8g2xKjrZx_-8" target="3Kygi3Q1QK8g2xKjrZx_-11">
          <mxGeometry relative="1" as="geometry" />
        </mxCell>
        <mxCell id="3Kygi3Q1QK8g2xKjrZx_-65" style="edgeStyle=orthogonalEdgeStyle;rounded=0;orthogonalLoop=1;jettySize=auto;html=1;entryX=0.51;entryY=0.022;entryDx=0;entryDy=0;entryPerimeter=0;" edge="1" parent="1" source="3Kygi3Q1QK8g2xKjrZx_-8" target="3Kygi3Q1QK8g2xKjrZx_-56">
          <mxGeometry relative="1" as="geometry">
            <Array as="points">
              <mxPoint x="270" y="20" />
              <mxPoint x="820" y="20" />
              <mxPoint x="820" y="130" />
            </Array>
          </mxGeometry>
        </mxCell>
        <mxCell id="3Kygi3Q1QK8g2xKjrZx_-8" value="&lt;font color=&quot;#ffffff&quot;&gt;Fidelity Investor UI&lt;/font&gt;" style="rounded=0;whiteSpace=wrap;html=1;fillColor=#CC6600;strokeColor=none;" vertex="1" parent="1">
          <mxGeometry x="210" y="160" width="120" height="40" as="geometry" />
        </mxCell>
        <mxCell id="3Kygi3Q1QK8g2xKjrZx_-13" style="edgeStyle=orthogonalEdgeStyle;rounded=0;orthogonalLoop=1;jettySize=auto;html=1;entryX=0.5;entryY=1;entryDx=0;entryDy=0;" edge="1" parent="1" source="3Kygi3Q1QK8g2xKjrZx_-11" target="3Kygi3Q1QK8g2xKjrZx_-6">
          <mxGeometry relative="1" as="geometry" />
        </mxCell>
        <mxCell id="3Kygi3Q1QK8g2xKjrZx_-14" style="edgeStyle=orthogonalEdgeStyle;rounded=0;orthogonalLoop=1;jettySize=auto;html=1;entryX=0.5;entryY=1;entryDx=0;entryDy=0;" edge="1" parent="1" source="3Kygi3Q1QK8g2xKjrZx_-11" target="3Kygi3Q1QK8g2xKjrZx_-8">
          <mxGeometry relative="1" as="geometry" />
        </mxCell>
        <mxCell id="3Kygi3Q1QK8g2xKjrZx_-11" value="&lt;font color=&quot;#ffffff&quot;&gt;Fidelity Admin UI&lt;/font&gt;" style="rounded=0;whiteSpace=wrap;html=1;fillColor=#CC6600;strokeColor=none;" vertex="1" parent="1">
          <mxGeometry x="210" y="300" width="120" height="40" as="geometry" />
        </mxCell>
        <mxCell id="3Kygi3Q1QK8g2xKjrZx_-16" style="edgeStyle=orthogonalEdgeStyle;rounded=0;orthogonalLoop=1;jettySize=auto;html=1;entryX=0;entryY=0.5;entryDx=0;entryDy=0;" edge="1" parent="1" source="3Kygi3Q1QK8g2xKjrZx_-15" target="3Kygi3Q1QK8g2xKjrZx_-8">
          <mxGeometry relative="1" as="geometry" />
        </mxCell>
        <mxCell id="3Kygi3Q1QK8g2xKjrZx_-15" value="Investor" style="shape=umlActor;verticalLabelPosition=bottom;verticalAlign=top;html=1;outlineConnect=0;" vertex="1" parent="1">
          <mxGeometry x="70" y="150" width="30" height="60" as="geometry" />
        </mxCell>
        <mxCell id="3Kygi3Q1QK8g2xKjrZx_-18" style="edgeStyle=orthogonalEdgeStyle;rounded=0;orthogonalLoop=1;jettySize=auto;html=1;entryX=0;entryY=0.5;entryDx=0;entryDy=0;" edge="1" parent="1" source="3Kygi3Q1QK8g2xKjrZx_-17" target="3Kygi3Q1QK8g2xKjrZx_-11">
          <mxGeometry relative="1" as="geometry" />
        </mxCell>
        <mxCell id="3Kygi3Q1QK8g2xKjrZx_-17" value="Distribution Team (FI or PI)" style="shape=umlActor;verticalLabelPosition=bottom;verticalAlign=top;html=1;outlineConnect=0;" vertex="1" parent="1">
          <mxGeometry x="70" y="290" width="30" height="60" as="geometry" />
        </mxCell>
        <mxCell id="3Kygi3Q1QK8g2xKjrZx_-20" style="edgeStyle=orthogonalEdgeStyle;rounded=0;orthogonalLoop=1;jettySize=auto;html=1;entryX=0.5;entryY=1;entryDx=0;entryDy=0;" edge="1" parent="1" source="3Kygi3Q1QK8g2xKjrZx_-19" target="3Kygi3Q1QK8g2xKjrZx_-11">
          <mxGeometry relative="1" as="geometry" />
        </mxCell>
        <mxCell id="3Kygi3Q1QK8g2xKjrZx_-19" value="Fund Ops" style="shape=umlActor;verticalLabelPosition=bottom;verticalAlign=top;html=1;outlineConnect=0;" vertex="1" parent="1">
          <mxGeometry x="255" y="410" width="30" height="60" as="geometry" />
        </mxCell>
        <mxCell id="3Kygi3Q1QK8g2xKjrZx_-21" value="&lt;font color=&quot;#ffffff&quot;&gt;Fidelity TA&lt;/font&gt;" style="rounded=0;whiteSpace=wrap;html=1;fillColor=#000099;strokeColor=none;" vertex="1" parent="1">
          <mxGeometry x="760" y="210" width="120" height="40" as="geometry" />
        </mxCell>
        <mxCell id="3Kygi3Q1QK8g2xKjrZx_-35" style="edgeStyle=orthogonalEdgeStyle;rounded=0;orthogonalLoop=1;jettySize=auto;html=1;entryX=0.5;entryY=1;entryDx=0;entryDy=0;" edge="1" parent="1" source="3Kygi3Q1QK8g2xKjrZx_-24" target="3Kygi3Q1QK8g2xKjrZx_-33">
          <mxGeometry relative="1" as="geometry" />
        </mxCell>
        <mxCell id="3Kygi3Q1QK8g2xKjrZx_-24" value="&lt;font color=&quot;#ffffff&quot;&gt;NFS/FIS&lt;/font&gt;" style="rounded=0;whiteSpace=wrap;html=1;fillColor=#000099;strokeColor=none;" vertex="1" parent="1">
          <mxGeometry x="760" y="260" width="120" height="40" as="geometry" />
        </mxCell>
        <mxCell id="3Kygi3Q1QK8g2xKjrZx_-26" value="&lt;font color=&quot;#ffffff&quot;&gt;TA Bank Account&lt;/font&gt;" style="rounded=0;whiteSpace=wrap;html=1;fillColor=#000099;strokeColor=none;" vertex="1" parent="1">
          <mxGeometry x="760" y="310" width="120" height="40" as="geometry" />
        </mxCell>
        <mxCell id="3Kygi3Q1QK8g2xKjrZx_-30" value="&lt;font color=&quot;#ffffff&quot;&gt;Trade Execution&lt;/font&gt;" style="rounded=0;whiteSpace=wrap;html=1;fillColor=#000099;strokeColor=none;" vertex="1" parent="1">
          <mxGeometry x="1010" y="40" width="120" height="40" as="geometry" />
        </mxCell>
        <mxCell id="3Kygi3Q1QK8g2xKjrZx_-31" value="&lt;font color=&quot;#ffffff&quot;&gt;Market&amp;nbsp;Surveillance&lt;/font&gt;" style="rounded=0;whiteSpace=wrap;html=1;fillColor=#000099;strokeColor=none;" vertex="1" parent="1">
          <mxGeometry x="1010" y="90" width="120" height="40" as="geometry" />
        </mxCell>
        <mxCell id="3Kygi3Q1QK8g2xKjrZx_-32" value="&lt;font color=&quot;#ffffff&quot;&gt;Cash Management&lt;/font&gt;" style="rounded=0;whiteSpace=wrap;html=1;fillColor=#000099;strokeColor=none;" vertex="1" parent="1">
          <mxGeometry x="1010" y="140" width="120" height="40" as="geometry" />
        </mxCell>
        <mxCell id="3Kygi3Q1QK8g2xKjrZx_-34" value="&lt;b&gt;&lt;font style=&quot;font-size: 14px;&quot;&gt;Fixed Income Trading&lt;/font&gt;&lt;/b&gt;" style="text;html=1;align=center;verticalAlign=middle;resizable=0;points=[];autosize=1;strokeColor=none;fillColor=none;" vertex="1" parent="1">
          <mxGeometry x="985" width="170" height="30" as="geometry" />
        </mxCell>
        <mxCell id="3Kygi3Q1QK8g2xKjrZx_-36" value="&lt;font color=&quot;#ffffff&quot;&gt;TA Services&lt;/font&gt;" style="rounded=0;whiteSpace=wrap;html=1;fillColor=#000099;strokeColor=none;" vertex="1" parent="1">
          <mxGeometry x="1010" y="390" width="120" height="40" as="geometry" />
        </mxCell>
        <mxCell id="3Kygi3Q1QK8g2xKjrZx_-37" value="&lt;font color=&quot;#ffffff&quot;&gt;Fund Accounting&lt;/font&gt;" style="rounded=0;whiteSpace=wrap;html=1;fillColor=#000099;strokeColor=none;" vertex="1" parent="1">
          <mxGeometry x="1010" y="440" width="120" height="40" as="geometry" />
        </mxCell>
        <mxCell id="3Kygi3Q1QK8g2xKjrZx_-38" value="&lt;font color=&quot;#ffffff&quot;&gt;NAV/MIL&lt;/font&gt;" style="rounded=0;whiteSpace=wrap;html=1;fillColor=#000099;strokeColor=none;" vertex="1" parent="1">
          <mxGeometry x="1010" y="490" width="120" height="40" as="geometry" />
        </mxCell>
        <mxCell id="3Kygi3Q1QK8g2xKjrZx_-40" style="edgeStyle=orthogonalEdgeStyle;rounded=0;orthogonalLoop=1;jettySize=auto;html=1;entryX=0.5;entryY=0;entryDx=0;entryDy=0;" edge="1" parent="1" source="3Kygi3Q1QK8g2xKjrZx_-24" target="3Kygi3Q1QK8g2xKjrZx_-39">
          <mxGeometry relative="1" as="geometry" />
        </mxCell>
        <mxCell id="3Kygi3Q1QK8g2xKjrZx_-41" value="&lt;font color=&quot;#ffffff&quot;&gt;Reporting&lt;/font&gt;" style="rounded=0;whiteSpace=wrap;html=1;fillColor=#000099;strokeColor=none;" vertex="1" parent="1">
          <mxGeometry x="1010" y="540" width="120" height="40" as="geometry" />
        </mxCell>
        <mxCell id="3Kygi3Q1QK8g2xKjrZx_-42" value="&lt;font color=&quot;#ffffff&quot;&gt;Fund&#39;s Bank&lt;/font&gt;" style="rounded=0;whiteSpace=wrap;html=1;fillColor=#000099;strokeColor=none;" vertex="1" parent="1">
          <mxGeometry x="1010" y="590" width="120" height="40" as="geometry" />
        </mxCell>
        <mxCell id="3Kygi3Q1QK8g2xKjrZx_-43" value="&lt;b&gt;&lt;font style=&quot;font-size: 14px;&quot;&gt;FFIO Fund Admin&lt;/font&gt;&lt;/b&gt;" style="text;html=1;align=center;verticalAlign=middle;resizable=0;points=[];autosize=1;strokeColor=none;fillColor=none;" vertex="1" parent="1">
          <mxGeometry x="1000" y="640" width="140" height="30" as="geometry" />
        </mxCell>
        <mxCell id="3Kygi3Q1QK8g2xKjrZx_-44" value="1" style="ellipse;whiteSpace=wrap;html=1;aspect=fixed;fontColor=#FFFFFF;fillColor=#000000;" vertex="1" parent="1">
          <mxGeometry x="150" y="157" width="20" height="20" as="geometry" />
        </mxCell>
        <mxCell id="3Kygi3Q1QK8g2xKjrZx_-45" value="6" style="ellipse;whiteSpace=wrap;html=1;aspect=fixed;fontColor=#FFFFFF;fillColor=#000000;" vertex="1" parent="1">
          <mxGeometry x="480" y="246" width="20" height="20" as="geometry" />
        </mxCell>
        <mxCell id="3Kygi3Q1QK8g2xKjrZx_-46" value="5" style="ellipse;whiteSpace=wrap;html=1;aspect=fixed;fontColor=#FFFFFF;fillColor=#000000;" vertex="1" parent="1">
          <mxGeometry x="670" y="253" width="20" height="20" as="geometry" />
        </mxCell>
        <mxCell id="3Kygi3Q1QK8g2xKjrZx_-47" value="3" style="ellipse;whiteSpace=wrap;html=1;aspect=fixed;fontColor=#FFFFFF;fillColor=#000000;" vertex="1" parent="1">
          <mxGeometry x="880" y="175" width="20" height="20" as="geometry" />
        </mxCell>
        <mxCell id="3Kygi3Q1QK8g2xKjrZx_-48" value="2" style="ellipse;whiteSpace=wrap;html=1;aspect=fixed;fontColor=#FFFFFF;fillColor=#000000;" vertex="1" parent="1">
          <mxGeometry x="740" y="175" width="20" height="20" as="geometry" />
        </mxCell>
        <mxCell id="3Kygi3Q1QK8g2xKjrZx_-49" value="4" style="ellipse;whiteSpace=wrap;html=1;aspect=fixed;fontColor=#FFFFFF;fillColor=#000000;" vertex="1" parent="1">
          <mxGeometry x="1073" y="230" width="20" height="20" as="geometry" />
        </mxCell>
        <mxCell id="3Kygi3Q1QK8g2xKjrZx_-50" value="7" style="ellipse;whiteSpace=wrap;html=1;aspect=fixed;fontColor=#FFFFFF;fillColor=#000000;" vertex="1" parent="1">
          <mxGeometry x="880" y="350" width="20" height="20" as="geometry" />
        </mxCell>
        <mxCell id="3Kygi3Q1QK8g2xKjrZx_-51" value="9" style="ellipse;whiteSpace=wrap;html=1;aspect=fixed;fontColor=#FFFFFF;fillColor=#000000;" vertex="1" parent="1">
          <mxGeometry x="1073" y="320" width="20" height="20" as="geometry" />
        </mxCell>
        <mxCell id="3Kygi3Q1QK8g2xKjrZx_-52" value="8" style="ellipse;whiteSpace=wrap;html=1;aspect=fixed;fontColor=#FFFFFF;fillColor=#000000;" vertex="1" parent="1">
          <mxGeometry x="577" y="38" width="20" height="20" as="geometry" />
        </mxCell>
        <mxCell id="3Kygi3Q1QK8g2xKjrZx_-53" value="8" style="ellipse;whiteSpace=wrap;html=1;aspect=fixed;fontColor=#FFFFFF;fillColor=#000000;" vertex="1" parent="1">
          <mxGeometry x="500" y="38" width="20" height="20" as="geometry" />
        </mxCell>
        <mxCell id="3Kygi3Q1QK8g2xKjrZx_-56" value="&lt;b&gt;&lt;font style=&quot;font-size: 14px;&quot;&gt;Fidelity TA&lt;/font&gt;&lt;/b&gt;" style="text;html=1;align=center;verticalAlign=middle;resizable=0;points=[];autosize=1;strokeColor=none;fillColor=none;" vertex="1" parent="1">
          <mxGeometry x="775" y="165" width="90" height="30" as="geometry" />
        </mxCell>
        <mxCell id="3Kygi3Q1QK8g2xKjrZx_-57" style="edgeStyle=orthogonalEdgeStyle;rounded=0;orthogonalLoop=1;jettySize=auto;html=1;exitX=0.5;exitY=1;exitDx=0;exitDy=0;" edge="1" parent="1" source="3Kygi3Q1QK8g2xKjrZx_-55" target="3Kygi3Q1QK8g2xKjrZx_-55">
          <mxGeometry relative="1" as="geometry" />
        </mxCell>
      </root>
    </mxGraphModel>
  </diagram>
</mxfile>
